<?xml version="1.0" encoding="utf-8"?>
<!-- Generator: Adobe Illustrator 24.0.1, SVG Export Plug-In . SVG Version: 6.00 Build 0)  -->
<svg version="1.1" id="Layer_1" xmlns="http://www.w3.org/2000/svg" xmlns:xlink="http://www.w3.org/1999/xlink" x="0px" y="0px"
	 viewBox="0 0 1193.4 512" style="enable-background:new 0 0 1193.4 512;" xml:space="preserve">
<style type="text/css">
	.st0{fill:#FFFFFF;stroke:#FFFFFF;stroke-width:20;stroke-miterlimit:10;}
	.st1{fill:#FFFFFF;stroke:#FFFFFF;stroke-width:10;stroke-miterlimit:10;}
	.st2{fill:#FFFFFF;}
</style>
<title>Artboard 1</title>
<path class="st0" d="M50.4,243.5c1-7.2,1.7-14.5,3.1-21.7c14.1-79.6,72.3-141.7,150.9-161.2c92.6-23,191,24.9,230.1,112
	c37.6,83.7,15.5,180.1-55,238.5c-30.4,25.2-65.4,40-104.6,44.6c-3.6,0.4-7.2,1-10.8,1.4H239c-0.9-0.3-1.7-0.5-2.6-0.6
	c-17-1.2-33.7-4.4-49.8-10.3c-73.1-27-117.3-78.7-132.9-155.1c-1.5-7.4-2.2-14.9-3.1-22.4L50.4,243.5z M61.6,256
	c0.3,105.2,85.2,190,190.2,190c104.2,0,189.9-85.8,189.6-189.8c-0.3-105.5-85.6-190.4-191-189.9C146.5,66.6,61.3,152.2,61.6,256z"/>
<path class="st1" d="M212.3,287v-5.3c0-43.3,0-86.7,0-130c0-3.3,0-6.5,3.8-7.8c3.8-1.2,6.4,0.3,8.7,3.5
	c9.8,12.9,19.7,25.7,29.6,38.7c2.9,3.8,3,6.8,0.1,8.9c-3.1,2.4-7,1.8-9.7-1.6c-5.8-7.3-11.3-14.8-16.9-22.2c-0.9-1.2-2-2.2-3.3-2.9
	v133.5c0,19.7-12.3,34.1-31.9,37.4c-8.9,1.5-17.5,0.9-25.7-3.1c-14.4-6.9-18.7-22.8-9.6-36c10.6-15.5,33.2-22.2,51.1-14.9
	C209.5,285.9,210.5,286.3,212.3,287z M183.6,330.2c11-1.2,19.7-5.2,25.8-14.1c5.4-7.8,2.9-16.8-5.4-20.7c-12-5.7-30.7,0.4-37.1,12.1
	c-3.6,6.5-2.2,14,4.2,17.9C174.8,327.8,179.4,328.7,183.6,330.2z"/>
<path class="st1" d="M251.9,368.6h-90.3c-1.3,0-3,0.4-3.8-0.2c-1.7-1.2-3.8-2.8-4.4-4.7c-0.9-2.6,0.8-4.9,3.6-5.7
	c1.5-0.3,3.1-0.4,4.6-0.4c60,0,119.9,0,179.9,0c0.4,0,0.8,0,1.2,0c4.9,0.1,7.5,2,7.5,5.5s-2.5,5.4-7.5,5.4L251.9,368.6z"/>
<path class="st1" d="M303.9,156.5c-13.2,0-26.4,0-39.6,0c-2.9,0-5.2-0.8-6.3-3.7c-1.3-3.6,1.1-7,5.3-7.2c3.7-0.3,7.3-0.1,11-0.1H341
	c1.4-0.1,2.9,0,4.3,0.2c3.1,0.7,4.8,2.6,4.5,5.8c-0.3,3.1-2.1,4.7-5.1,4.9c-3.2,0.1-6.5,0.1-9.8,0.1H303.9z"/>
<path class="st1" d="M303.3,227.2c-13.1,0-26.2,0-39.3,0c-4.6,0-7.3-3-6.3-6.8c0.9-3.1,3.3-4.2,6.4-4.2c5.3,0,10.7,0,16.1,0h60.4
	c1.4-0.1,2.9,0,4.3,0.2c3.1,0.5,5,2.4,4.8,5.7s-2.1,5.1-5.2,5.1c-5.1,0.1-10.2,0.1-15.3,0.1L303.3,227.2z"/>
<path class="st1" d="M303.8,297.9c-13.4,0-26.7,0-40.1,0c-3.8,0-5.9-2-6-5.2s2.1-5.3,5.8-5.7c0.9-0.1,1.8,0,2.7,0c8.5,0,17,0,25.5,0
	H341c0.9,0,1.8,0,2.7,0c3.9,0.3,6.1,2.4,6,5.8s-2.3,5.1-6.1,5.1c-9.8,0.1-19.6,0-29.4,0L303.8,297.9L303.8,297.9z"/>
<g>
	<g>
		<path class="st2" d="M517.7,285.5v12.4c0,15,4.5,23.3,16.3,23.3c12.1,0,15.2-11.5,15.2-24.5c0-21.6-4.7-28.3-26.2-45.4
			c-21.7-17.1-33.2-28-33.2-57.8c0-26.5,8-53.3,44.3-53.2c37.1,0,42.9,26.5,42.9,48.3v10.7h-30.8v-9.9c0-14-2.4-22.5-12.7-22.5
			c-10.1,0-12.7,8.8-12.7,22.1c0,14.2,2.7,21.2,20.4,34.1c30.1,22.3,39.3,35.2,39.3,68.9c0,28.5-10,55.6-47.5,55.6
			c-37.2,0-46.3-23.7-46.3-50.2v-11.9H517.7z"/>
		<path class="st2" d="M625.6,275v22.9c0,12,2.8,23.1,14.6,23.1c12.4,0,13.9-11.1,13.9-22.3V298h30.2v0.7c0,16.4-3.5,48.5-43.4,48.5
			c-39.7,0-45.5-24.6-45.5-56.1V240c0-21.3,6.7-53.5,45.4-53.5c33.3,0,44.1,22.4,44.1,53.3c0,9.1,0,26.4,0,35.3h-59.3V275z
			 M655.1,250.7v-16c0-14.4-3.3-22.2-14.5-22.2c-10,0-14.8,7.1-14.8,22.2v15.9h29.3V250.7z"/>
		<path class="st2" d="M692,188.8h16.6v-37.4h31v37.4h19.6V216h-19.6v92.2c0,7.4,1,13.3,10.4,13.3c2.7,0,6.8-0.3,8.5-0.9V344
			c-5.2,2.5-13.1,3.1-18.9,3.1c-19.5,0-30.9-6.3-30.9-33.3V216H692V188.8z"/>
		<path class="st2" d="M777.5,143.5h28.6c27.6,0,37.6,16.6,37.6,41.7V196c0,28-7.3,37-18.7,41c12.9,3.3,23.2,15,23.2,40.4v14.5
			c0,36.1-10,53-43.5,53h-27.2L777.5,143.5L777.5,143.5z M807.8,231.9c18.6,0,24.4-9.3,24.4-36.2v-10.2c0-19.8-7.5-31.4-27.3-31.4
			h-15.8v77.8L807.8,231.9L807.8,231.9z M789.1,334.1h15.5c25.4,0,31.7-12.8,31.7-42.4v-14.4c0-24.3-10.4-34.8-29.4-34.8H789
			L789.1,334.1L789.1,334.1z"/>
		<path class="st2" d="M931.4,323.7c0,11.1,0.3,18,0.6,21h-11.2c-0.9-4.5-1.2-10.5-1.2-13.5c-4.5,13.2-15,15.9-24.4,15.9
			c-20.8,0-29-17.6-29-41.4V303c0-30.9,17.1-45.3,43.6-45.3c3.3,0,5.6,0,9.8,0V229c0-15.6-3.3-26.3-17.9-26.3
			c-14.6,0-19.1,11.1-19.1,25.4v5.7H871v-5.6c0-20.2,8.1-36.6,31-36.6c23.3,0,29.5,16.9,29.5,36.9L931.4,323.7L931.4,323.7z
			 M919.8,268.3c-2.4,0-6.9,0-9.8,0c-20.6,0-32,9.3-32,34.1v2.7c0,16.4,4.5,30.8,18.9,30.8c17.9,0,23-15.5,23-40.4v-27.2H919.8z"/>
		<path class="st2" d="M962.2,239.2c0-29.9,0-37.1-0.3-45.2h11c0.3,3.3,0.6,7.9,0.6,16.5c4.5-13.5,14.4-18.9,27.4-18.9
			c14.6,0,28.4,7.6,28.4,34.5v118.6h-11.6V228.5c0-15.6-5.1-25.8-18.9-25.8c-14.7,0-25.1,6.9-25.1,43.9v98h-11.6L962.2,239.2
			L962.2,239.2z"/>
		<path class="st2" d="M1123.5,134.5V309c0,12.6,0,27,0.3,35.7h-11c-0.3-1.9-0.6-10.3-0.6-15.4c-3.1,8.8-9.7,17.8-25.9,17.8
			c-23.6,0-31.1-18.5-31.1-47.1v-64.7c0-27.1,11.1-43.8,33.2-43.8c15.8,0,21.1,7.7,23.5,12v-69.1h11.6V134.5z M1067.1,236v62.9
			c0,24.8,6.3,37,20.3,37c19.4,0,24.5-19.4,24.5-44V239c0-16.9-1.8-36.3-23.6-36.3C1073.7,202.8,1067.1,215.6,1067.1,236z"/>
	</g>
</g>
</svg>
